<svg width="18" height="18" viewBox="0 0 18 18" fill="none" xmlns="http://www.w3.org/2000/svg">
<path d="M12.1421 10.3309C12.0959 10.44 18 9.92556 18 9.92556C17.9686 10.2299 17.924 10.5294 17.8628 10.8238C17.8017 11.1183 17.7273 11.4078 17.6397 11.6907C17.6397 11.6907 11.4562 11.373 11.3769 11.4508C11.2975 11.5285 16.9537 13.3118 16.9537 13.3118C16.8149 13.5682 16.6628 13.8164 16.5008 14.0579C16.3388 14.2978 16.1636 14.531 15.9802 14.7543C15.9802 14.7543 10.3818 12.1241 10.281 12.1654C10.1802 12.2068 14.7537 15.9801 14.7537 15.9801C14.5306 16.1638 14.2975 16.3375 14.0579 16.5012C13.8165 16.6634 13.5686 16.8155 13.3124 16.9545C13.3124 16.9545 9.10744 12.4169 8.99669 12.4169C8.88595 12.4169 11.6909 17.6394 11.6909 17.6394C11.4083 17.727 11.119 17.8015 10.8248 17.8627C10.5306 17.9222 10.2314 17.9686 9.92727 18C9.92727 18 7.78017 12.1919 7.67107 12.1456C7.56198 12.0993 8.07769 18 8.07769 18C7.77355 17.9686 7.47438 17.9239 7.18016 17.8627C6.88595 17.8031 6.59669 17.7287 6.31405 17.6394C6.31405 17.6394 6.6314 11.4607 6.55372 11.3797C6.47603 11.3002 4.69091 16.9545 4.69091 16.9545C4.43471 16.8155 4.18512 16.6634 3.94545 16.5012C3.70413 16.3391 3.47273 16.1654 3.24959 15.9801C3.24959 15.9801 5.88099 10.3838 5.84132 10.2829C5.8 10.182 2.02479 14.7543 2.02479 14.7543C1.83967 14.531 1.66612 14.2994 1.50413 14.0579C1.34215 13.818 1.19008 13.5682 1.05124 13.3118C1.05124 13.3118 5.59174 9.11001 5.59174 8.99917C5.59174 8.88834 0.360331 11.689 0.360331 11.689C0.272727 11.4061 0.198347 11.1166 0.13719 10.8222C0.0776859 10.5277 0.031405 10.2283 0 9.9239C0 9.9239 5.81157 7.77668 5.85785 7.66915C5.90413 7.56162 0 8.07444 0 8.07444C0.031405 7.77006 0.0760331 7.47064 0.13719 7.17618C0.196694 6.88172 0.272727 6.59223 0.360331 6.30935C0.360331 6.30935 6.5438 6.62696 6.62314 6.54921C6.70248 6.47146 1.04628 4.68817 1.04628 4.68817C1.18512 4.43176 1.33719 4.18362 1.49917 3.9421C1.66116 3.70223 1.83636 3.46898 2.01983 3.24566C2.01983 3.24566 7.61818 5.87593 7.71901 5.83457C7.81983 5.79322 3.24628 2.01985 3.24628 2.01985C3.46942 1.83623 3.70248 1.66253 3.94215 1.49876C4.18347 1.33664 4.43141 1.18445 4.6876 1.04549C4.6876 1.04549 8.89256 5.58313 9.00331 5.58313C9.11405 5.58313 6.30909 0.360629 6.30909 0.360629C6.59173 0.272953 6.88099 0.198511 7.17521 0.137304C7.46942 0.0777502 7.76859 0.0314309 8.07273 0C8.07273 0 10.2198 5.80811 10.3289 5.85442C10.438 5.90074 9.92397 0.00496278 9.92397 0.00496278C10.2281 0.0363937 10.5273 0.0810587 10.8215 0.142266C11.1157 0.20182 11.405 0.276261 11.6876 0.365591C11.6876 0.365591 11.3702 6.54425 11.4479 6.62531C11.5256 6.70637 13.3107 1.05045 13.3107 1.05045C13.5669 1.18941 13.8165 1.3416 14.0562 1.50372C14.2975 1.66584 14.5289 1.83954 14.7521 2.02481C14.7521 2.02481 12.1207 7.62117 12.1603 7.72208C12.2 7.82299 15.9769 3.25062 15.9769 3.25062C16.162 3.47395 16.3355 3.70554 16.4975 3.94706C16.6595 4.18693 16.8116 4.43672 16.9504 4.69313C16.9504 4.69313 12.4099 8.89495 12.4099 9.00579C12.4099 9.11662 17.6364 6.31431 17.6364 6.31431C17.724 6.59719 17.7983 6.88668 17.8595 7.18114C17.919 7.4756 17.9653 7.77502 17.9967 8.0794C17.9967 8.0794 12.1851 10.2266 12.1388 10.3342L12.1421 10.3309Z" fill="#010101"></path>
</svg>